<?xml version="1.0" encoding="UTF-8" standalone="no"?>
<!-- Created with Inkscape (http://www.inkscape.org/) -->

<svg
   xmlns:dc="http://purl.org/dc/elements/1.1/"
   xmlns:cc="http://creativecommons.org/ns#"
   xmlns:rdf="http://www.w3.org/1999/02/22-rdf-syntax-ns#"
   xmlns:svg="http://www.w3.org/2000/svg"
   xmlns="http://www.w3.org/2000/svg"
   xmlns:xlink="http://www.w3.org/1999/xlink"
   xmlns:sodipodi="http://sodipodi.sourceforge.net/DTD/sodipodi-0.dtd"
   xmlns:inkscape="http://www.inkscape.org/namespaces/inkscape"
   width="210.39915"
   height="87.967735"
   id="svg3131"
   version="1.1"
   inkscape:version="0.48.0 r9654"
   sodipodi:docname="amkor2.svg">
  <defs
     id="defs3133">
    <linearGradient
       inkscape:collect="always"
       xlink:href="#linearGradient6765"
       id="linearGradient3306"
       gradientUnits="userSpaceOnUse"
       gradientTransform="matrix(0,-1.0544213,3.4639176,0,-518.40861,485.72699)"
       x1="93.5"
       y1="260.625"
       x2="376.5"
       y2="260.625" />
    <linearGradient
       id="linearGradient6765">
      <stop
         style="stop-color:#4678ea;stop-opacity:0.92792791;"
         offset="0"
         id="stop6767" />
      <stop
         id="stop6773"
         offset="0.5"
         style="stop-color:#4678ea;stop-opacity:0.7117117;" />
      <stop
         style="stop-color:#4678ea;stop-opacity:0.61261261;"
         offset="0.75"
         id="stop3785" />
      <stop
         style="stop-color:#4678ea;stop-opacity:0.51351351;"
         offset="1"
         id="stop6769" />
    </linearGradient>
    <linearGradient
       inkscape:collect="always"
       xlink:href="#linearGradient6765"
       id="linearGradient4187"
       gradientUnits="userSpaceOnUse"
       gradientTransform="matrix(0,-0.34569811,1.7352508,0,-4.549552,218.47886)"
       x1="93.5"
       y1="260.625"
       x2="376.5"
       y2="260.625" />
  </defs>
  <sodipodi:namedview
     id="base"
     pagecolor="#ffffff"
     bordercolor="#666666"
     borderopacity="1.0"
     inkscape:pageopacity="0.0"
     inkscape:pageshadow="2"
     inkscape:zoom="2.8284271"
     inkscape:cx="95.610399"
     inkscape:cy="2.2636805"
     inkscape:document-units="px"
     inkscape:current-layer="layer1"
     showgrid="false"
     inkscape:window-width="1250"
     inkscape:window-height="746"
     inkscape:window-x="-8"
     inkscape:window-y="-8"
     inkscape:window-maximized="1"
     showborder="false"
     inkscape:showpageshadow="false"
     fit-margin-top="0"
     fit-margin-left="0"
     fit-margin-right="0"
     fit-margin-bottom="0" />
  <metadata
     id="metadata3136">
    <rdf:RDF>
      <cc:Work
         rdf:about="">
        <dc:format>image/svg+xml</dc:format>
        <dc:type
           rdf:resource="http://purl.org/dc/dcmitype/StillImage" />
        <dc:title></dc:title>
      </cc:Work>
    </rdf:RDF>
  </metadata>
  <g
     inkscape:label="Layer 1"
     inkscape:groupmode="layer"
     id="layer1"
     transform="translate(-342.50065,-98.101847)">
    <path
       inkscape:connector-curvature="0"
       id="rect6247"
       style="color:#000000;fill:url(#linearGradient4187);fill-opacity:1;fill-rule:nonzero;stroke:none;stroke-width:14.11111069;marker:none;visibility:visible;display:inline;overflow:visible;enable-background:accumulate"
       d="m 342.50065,98.101847 0,9.507813 210.2113,0 0,-1.06552 c 0.0627,0.006 0.12512,0.0256 0.18786,0.0307 l 0,-7.714855 c -0.0609,0.02946 -0.12673,0.05248 -0.18786,0.08177 l 0,-0.215141 c 0.0608,0.0048 0.12576,0.008 0.18786,0.01127 l 0,-0.63522 -210.39916,0 z m 210.2113,9.507813 0,0.0307 0.18786,0 0,-0.0307 -0.18786,0 z m 0,0.0307 -207.80048,0 c -0.46798,0.1714 -0.97336,0.27412 -1.5185,0.28685 -0.35424,0.008 -0.63205,-0.006 -0.89232,-0.041 l 0,78.18337 210.39916,0 0,-77.93747 -0.18786,0 0,-0.49176 z" />
    <path
       style="color:#000000;fill:#ffffff;fill-opacity:1;fill-rule:nonzero;stroke:#ffffff;stroke-width:0.99352717;stroke-linecap:butt;stroke-linejoin:miter;stroke-miterlimit:4;stroke-opacity:0;stroke-dasharray:none;stroke-dashoffset:0;marker:none;visibility:visible;display:inline;overflow:visible;enable-background:accumulate"
       d="m 384.10049,107.14991 c -19.81722,0 -35.89986,14.13102 -35.89986,31.59616 0,17.46513 16.08264,31.64631 35.89986,31.64631 19.81721,0 35.89985,-14.18118 35.89985,-31.64631 0,-17.46514 -16.08264,-31.59616 -35.89985,-31.59616 z"
       id="path3307"
       inkscape:connector-curvature="0" />
    <path
       inkscape:connector-curvature="0"
       style="fill:#1a58e5;fill-opacity:0.60392159;fill-rule:evenodd"
       class="fil0"
       d="m 388.50272,149.44025 c 0.20807,-0.22715 -0.0526,-0.17736 0.51869,-0.19916 1.98151,-0.081 6.63721,0.01 8.69641,0.01 l 0,-7.33994 -14.815,0.0113 -8.20569,18.01549 9.01322,0.0282 4.79237,-10.52615 z"
       id="path4117" />
    <path
       style="fill:#1a58e5;fill-opacity:0.60392159;fill-rule:evenodd"
       d="m 397.60043,119.23669 c -1.033,0.0233 -2.19021,0.3959 -3.39998,1.20366 -3.027,2.02151 -7.45341,11.46626 -8.29997,15.04579 0.95181,0 8.42083,-0.01 8.69997,0.0502 l 3.14998,-6.67031 14.14995,30.69343 c 0.0183,-0.0161 0.0251,-0.0356 0.05,-0.0502 0.19429,-0.11364 0.41493,-0.22265 0.59999,-0.35106 0.0178,-0.0221 0.0316,-0.0269 0.05,-0.0501 1.17808,-1.4801 3.67563,-5.24807 4.29999,-6.06847 0.64749,-0.85218 0.43273,-0.96004 -0.05,-1.90579 -0.33405,-0.65336 -0.63883,-1.29346 -0.95,-1.95596 -0.62693,-1.33863 -1.24827,-2.7101 -1.84999,-4.06236 -2.37953,-5.34059 -4.67336,-10.88393 -7.29997,-16.09901 -1.83671,-3.64511 -4.67362,-9.88082 -9.14997,-9.77976 z"
       id="path4860"
       inkscape:connector-curvature="0" />
    <path
       inkscape:connector-curvature="0"
       style="fill:#ffffff;fill-opacity:1;fill-rule:evenodd"
       class="fil1"
       d="m 431.85086,158.51054 c 0.11343,-0.95504 0.0227,-8.92981 0.0227,-10.63299 0,-3.22674 0.05,-7.00379 3.61314,-6.99469 3.56782,0.01 3.59049,3.85891 3.58821,7.07653 0,1.59407 -0.0974,9.71434 0.0295,10.56253 l 8.01059,-0.0204 c 0.11103,-1.14152 0.0181,-8.64101 0.0181,-10.46248 0,-3.31769 0.13152,-6.76272 3.62448,-6.90827 3.67663,-0.15229 3.57915,3.69066 3.57689,6.90827 0,3.49509 0,6.9879 0.003,10.48295 l 8.05365,0 c 0,-3.68154 0,-7.36306 0,-11.04233 0,-3.44277 0.2516,-6.9401 -1.28297,-9.65974 -1.26249,-2.23986 -3.91456,-3.60424 -7.5617,-3.18354 -1.5391,0.17736 -2.94447,0.73902 -3.98262,1.4553 -1.44618,0.99828 -1.57991,1.4258 -2.643,2.83564 -0.36495,-0.35245 -0.75936,-1.17108 -1.24216,-1.67136 -1.60937,-1.6668 -3.357,-2.54909 -5.9592,-2.66962 -5.47413,-0.25697 -7.04722,3.17444 -7.84058,3.64743 l -0.0128,-2.93567 -8.04911,0.003 0.025,23.22162 8.01058,-0.01 z"
       id="path4981" />
    <path
       inkscape:connector-curvature="0"
       style="fill:#ffffff;fill-opacity:1;fill-rule:evenodd"
       class="fil1"
       d="m 473.97963,149.11879 c 0.3369,0.25464 0.52809,0.60249 0.86272,0.90263 l 6.24397,6.67763 c 0.29592,0.34106 0.6055,0.60478 0.90142,0.94355 0.21169,0.2433 0.55313,0.80716 0.9697,0.84579 0.85135,0.0797 9.72675,-0.003 11.06068,-0.003 -0.12752,-0.30239 -5.29019,-5.50446 -5.98445,-6.24109 -1.00387,-1.06861 -2.03959,-2.08265 -3.0389,-3.14216 -0.56908,-0.6025 -2.76346,-2.66242 -3.01159,-3.1808 0.3847,-0.23646 5.10354,-4.77689 5.69537,-5.29756 1.30433,-1.14591 2.92508,-2.81476 4.22943,-3.95837 0.24127,-0.21374 1.33847,-1.25505 1.42953,-1.40057 l -10.3869,-0.005 c -0.88777,-0.0113 -0.98791,0.39103 -2.02819,1.42326 -0.48941,0.48658 -6.57177,6.62081 -6.94508,6.86182 l -0.0592,0.006 c -0.091,-0.0431 -0.0388,-20.72182 -0.0388,-22.6726 l -8.02406,0 -0.005,37.58304 8.02405,0 0,-9.2423 c 0.0705,-0.3774 0.0319,0.17963 0.0728,-0.11606 0.003,-0.0161 0.0205,0.0113 0.0319,0.0161 z"
       id="path5035" />
    <path
       inkscape:connector-curvature="0"
       style="fill:#ffffff;fill-opacity:1;fill-rule:evenodd"
       class="fil1"
       d="m 500.86371,146.57165 c -0.38876,-6.87486 9.8765,-7.36001 10.24119,-0.63316 0.37273,6.86119 -9.86274,7.33267 -10.24119,0.63316 z m 4.29258,-12.70776 c -18.13023,1.02832 -16.50632,25.69567 1.88884,24.62521 18.09468,-1.05338 16.46961,-25.66606 -1.88884,-24.62521 z"
       id="path5608" />
    <path
       inkscape:connector-curvature="0"
       style="fill:#ffffff;fill-opacity:1;fill-rule:evenodd"
       class="fil1"
       d="m 530.83777,139.10777 c -0.0963,-0.20987 -0.0306,-3.21131 -0.0306,-3.71722 -1.35155,0 -2.70311,0 -4.05468,0 -0.58618,0 -3.68161,-0.0658 -3.98889,0.0317 l -10e-4,23.10062 8.06398,-0.01 c 0,-3.16364 -0.34582,-10.06149 0.38325,-12.71128 1.00347,-3.64574 4.86423,-4.59518 8.6071,-2.92091 l -0.003,-7.84049 c -1.71666,-0.26883 -4.30299,0.20759 -5.64094,0.87911 -0.80503,0.40382 -1.38444,0.85075 -1.90487,1.37708 -0.10992,0.11011 -1.41845,1.80811 -1.42866,1.80925 z"
       id="path5664" />
    <path
       inkscape:connector-curvature="0"
       style="fill:#ffffff;fill-opacity:1;fill-rule:evenodd"
       class="fil1"
       d="m 436.48981,170.76947 c -0.0112,-0.16874 0.17319,-0.55118 0.2487,-0.67748 0.11329,-0.18895 0.27388,-0.37436 0.42843,-0.4966 0.75971,-0.60069 2.01329,-0.63355 2.76999,0.0145 0.29803,0.25565 0.659,0.75177 0.67109,1.16047 l -4.11821,0 z m 7.42739,2.10319 c 0.0484,-0.19501 -0.0112,-1.0468 -0.0368,-1.28223 -0.0423,-0.39203 -0.11473,-0.76741 -0.21245,-1.12609 -0.53971,-1.97992 -2.05056,-3.37831 -4.34024,-3.64709 -3.38973,-0.39761 -5.84958,1.33829 -6.36511,4.18968 -0.29402,1.62727 -0.0171,3.23735 0.74258,4.39278 0.63938,0.97199 1.66592,1.77478 3.17829,2.14105 2.12706,0.51481 4.64532,0.095 6.02526,-1.54239 0.32875,-0.39003 0.76173,-1.10894 0.87701,-1.78743 l -3.43453,0.003 c -0.075,0.1935 -0.27889,0.39305 -0.39721,0.51229 -0.49238,0.49762 -1.47158,0.49812 -2.12255,0.3299 -0.94498,-0.24452 -1.39756,-1.03366 -1.40261,-2.183 l 7.48882,0 z"
       id="path5724" />
    <path
       inkscape:connector-curvature="0"
       style="fill:#ffffff;fill-opacity:1;fill-rule:evenodd"
       class="fil1"
       d="m 453.08745,174.12402 c -0.0583,-0.01 -0.45511,0.2897 -0.55237,0.34027 -1.63446,0.85197 -3.74015,-0.0931 -3.73461,-2.22925 0.003,-0.9713 0.55339,-1.91529 1.45957,-2.30056 1.54475,-0.65731 2.61674,0.45506 2.83648,0.48236 l -0.01,-3.06455 c -0.79581,-0.50006 -1.98725,-0.65072 -2.90957,-0.56881 -2.91459,0.25838 -5.0097,2.49622 -5.05405,5.47126 -0.0544,3.66927 3.25278,6.08762 6.68247,5.3656 0.33616,-0.0708 1.01303,-0.27456 1.29123,-0.46061 l -0.008,-3.03521 z"
       id="path5780" />
    <path
       class="fil1"
       d="m 455.07484,177.73182 3.51711,0.0161 c 0.0373,-0.11541 0.003,-0.41801 0.0144,-0.81897 0.037,-1.20307 -0.016,-3.29185 -0.016,-3.8684 -0.003,-1.52152 0.18809,-2.90886 1.66791,-3.03622 1.73363,-0.14778 1.79481,1.35323 1.79254,2.87704 0,1.61474 0,3.23179 0,4.84655 l 3.58056,0 c -0.006,-1.61476 -0.006,-3.22954 -0.006,-4.84655 0,-1.60113 0.10191,-2.88841 -0.64586,-4.17794 -1.17163,-2.02186 -4.39863,-2.10602 -5.79914,-0.59132 -0.12016,0.132 -0.48043,0.51628 -0.58921,0.59359 l 0,-7.63488 -3.57375,0.005 z"
       id="path5834"
       inkscape:connector-curvature="0"
       style="fill:#ffffff;fill-rule:evenodd"
       sodipodi:nodetypes="ccscccccscccccc" />
    <path
       inkscape:connector-curvature="0"
       style="fill:#ffffff;fill-opacity:1;fill-rule:evenodd"
       class="fil1"
       d="m 471.16244,168.72305 0,-1.27712 -3.56629,0 -0.005,10.30194 3.57234,-0.002 c 0,-1.58503 0,-3.14883 0,-4.71414 0,-1.51224 0.13152,-2.92586 1.7227,-3.01383 1.79371,-0.0985 1.74232,1.42576 1.7393,2.95921 -0.003,1.58961 0,3.17918 0,4.76876 l 3.57536,-0.002 c 0,-1.61989 0,-3.22009 0,-4.8203 0,-1.52436 0.0982,-3.029 -0.60748,-4.24091 -0.5833,-1.0041 -1.67283,-1.60019 -3.26707,-1.58047 -1.29807,0.0167 -2.13977,0.40345 -2.87722,1.32869 -0.29769,0.37464 -0.14655,0.27908 -0.28711,0.29122 z"
       id="path5888" />
    <path
       id="path5912"
       d="m 483.7705,172.43056 c -0.17178,-3.05872 4.36389,-3.27455 4.52503,-0.28169 0.16468,3.05263 -4.35782,3.26239 -4.52503,0.28169 z m 1.89667,-5.65384 c -8.01077,0.4575 -7.29325,11.43234 0.83457,10.95609 7.99506,-0.46867 7.27702,-11.41918 -0.83457,-10.95609 z"
       class="fil1"
       style="fill:#ffffff;fill-opacity:1;fill-rule:evenodd"
       inkscape:connector-curvature="0" />
    <path
       inkscape:connector-curvature="0"
       style="fill:#ffffff;fill-opacity:1;fill-rule:evenodd"
       class="fil1"
       d="m 502.77732,172.43056 c -0.1718,-3.05872 4.36446,-3.27455 4.52561,-0.28169 0.16471,3.05263 -4.35838,3.26239 -4.52561,0.28169 z m 1.89691,-5.65384 c -8.01181,0.4575 -7.29422,11.43234 0.83467,10.95609 7.99612,-0.46867 7.278,-11.41918 -0.83467,-10.95609 z"
       id="path5914" />
    <rect
       y="161.35709"
       x="494.02008"
       height="16.390764"
       width="3.3104639"
       id="rect5916"
       style="color:#000000;fill:#ffffff;fill-opacity:1;fill-rule:nonzero;marker:none;visibility:visible;display:inline;overflow:visible;enable-background:accumulate" />
    <path
       inkscape:connector-curvature="0"
       style="fill:#ffffff;fill-opacity:1;fill-rule:evenodd"
       class="fil1"
       d="m 525.14632,167.1089 c 0.0744,0.24716 3.97288,7.29043 4.18078,7.65889 0.86197,1.5254 0.68441,1.14632 0.28682,1.95755 -0.31413,0.6414 -0.67834,1.2722 -1.01523,1.92725 -0.34296,0.66413 -1.89084,3.51024 -2.035,3.89388 l 3.93495,0 c 0.19272,-0.0501 5.29312,-10.01978 6.12018,-11.55125 0.27165,-0.50493 1.93485,-3.624 2.01224,-3.88935 l -4.05027,0.0145 -2.6572,5.22066 -2.64959,-5.23582 -4.12768,0.003 z"
       id="path5948" />
    <path
       inkscape:connector-curvature="0"
       style="fill:#ffffff;fill-opacity:1;fill-rule:evenodd"
       class="fil1"
       d="m 518.28132,169.89423 c 3.17002,-0.42693 3.59027,4.23745 0.71504,4.58113 -3.2849,0.39361 -3.55851,-4.1981 -0.71504,-4.58113 z m 2.51092,-1.69257 c -0.3885,-0.32095 -0.42781,-0.55258 -0.98258,-0.90381 -2.38092,-1.50333 -7.0188,0.17109 -7.15032,4.87027 -0.0968,3.45024 2.55476,5.90127 5.73688,5.37747 1.26075,-0.2074 1.49052,-0.63434 2.40509,-1.31408 0.0378,1.13694 0.008,2.59485 -1.102,3.15955 -0.50492,0.25736 -1.23658,0.29521 -1.77929,0.16049 -0.96293,-0.24072 -0.9856,-0.87354 -1.15039,-0.93257 l -3.93038,0 c 0.50641,4.17236 7.61589,5.07617 10.07541,2.44347 1.58426,-1.69559 1.46483,-4.06034 1.46483,-6.22071 0,-2.57064 0,-5.14129 0,-7.71494 l -3.57213,0 -0.0144,1.0764 z"
       id="path6002" />
    <path
       class="fil1"
       d="m 423.71682,165.92225 c 0.36896,0.0319 2.71821,-0.006 3.20289,0.006 l 0.0112,11.79672 3.87819,0.0225 0.0112,-11.86805 c 0.033,-0.008 0.15024,-0.006 0.29476,-0.01 0.69977,-0.0182 2.59731,-0.0406 2.92603,-0.0406 l 0,-3.31901 c -0.12672,0 -10.12224,-0.0364 -10.32796,0.019 l 0.005,3.39335 z"
       id="path6061"
       inkscape:connector-curvature="0"
       style="fill:#ffffff;fill-opacity:1;fill-rule:evenodd"
       sodipodi:nodetypes="cccccsccccc" />
    <path
       inkscape:connector-curvature="0"
       style="fill:#ffffff;fill-rule:evenodd"
       class="fil1"
       d="m 539.67735,165.4388 c -0.16733,-2.25134 1.52485,-4.1337 3.56526,-4.27927 2.28164,-0.16289 4.02279,1.55803 4.17786,3.66154 0.17003,2.30142 -1.50582,4.09375 -3.5757,4.26483 -2.2313,0.18424 -4.01553,-1.60457 -4.16742,-3.64759 z m 3.4501,-4.98076 c -2.39363,0.20686 -4.38189,2.40139 -4.13477,5.09952 0.2181,2.37876 2.3374,4.49448 4.99627,4.23016 2.39272,-0.23737 4.34064,-2.37636 4.12118,-5.08588 -0.19815,-2.44376 -2.28389,-4.47764 -4.98268,-4.24429 z"
       id="path6130" />
    <path
       inkscape:connector-curvature="0"
       style="fill:#ffffff;fill-rule:evenodd"
       class="fil1"
       d="m 542.78785,164.77101 0,-1.66138 c 0.81389,0 1.89666,-0.11558 1.91889,0.82026 0.0231,0.98299 -1.09683,0.84112 -1.91889,0.84112 z m -1.10546,2.83406 0.005,0.0594 1.09592,0 0.005,-2.20496 0.79847,0 1.02248,2.20672 1.21518,0 -1.12766,-2.38245 c 0.33915,-0.13957 0.64341,-0.1706 0.92089,-0.61644 0.20269,-0.32466 0.28794,-0.86375 0.1496,-1.28423 -0.25301,-0.7697 -1.16937,-0.98025 -2.13018,-0.98025 l -1.95155,0 -0.003,5.20368 z"
       id="path6132" />
  </g>
</svg>
